<svg width="250" height="250" viewBox="0 0 250 250" fill="none" xmlns="http://www.w3.org/2000/svg">
<rect x="6.10352e-05" width="250" height="250" rx="40" fill="black"/>
<path d="M115.92 125C115.92 93.1885 141.708 67.4001 173.52 67.4001C205.332 67.4001 231.12 93.1885 231.12 125C231.12 156.812 205.332 182.6 173.52 182.6C141.708 182.6 115.92 156.812 115.92 125Z" fill="#00FF75"/>
<circle cx="90" cy="125" r="72" transform="rotate(-180 90 125)" fill="#04FFFE"/>
<path fill-rule="evenodd" clip-rule="evenodd" d="M142.927 76.1868C154.767 89.018 162 106.164 162 125C162 143.836 154.767 160.982 142.927 173.813C126.704 163.624 115.92 145.572 115.92 125C115.92 104.429 126.704 86.3758 142.927 76.1868Z" fill="black"/>
</svg>
