<svg width="252" height="252" viewBox="0 0 252 252" fill="none" xmlns="http://www.w3.org/2000/svg">
<rect x="2.00006" y="2" width="250" height="250" rx="40" fill="black"/>
<path d="M120.45 120.891C142.945 98.3969 179.415 98.3969 201.909 120.891C224.403 143.385 224.403 179.856 201.909 202.35C179.415 224.844 142.945 224.844 120.45 202.35C97.9563 179.856 97.9563 143.385 120.45 120.891Z" fill="#00FF75"/>
<circle cx="102.122" cy="102.562" r="72" transform="rotate(-135 102.122 102.562)" fill="#04FFFE"/>
<path fill-rule="evenodd" clip-rule="evenodd" d="M174.064 105.472C173.363 122.917 166.353 140.155 153.034 153.474C139.715 166.793 122.477 173.803 105.032 174.504C100.765 155.828 105.904 135.437 120.451 120.891C134.997 106.344 155.388 101.205 174.064 105.472Z" fill="black"/>
</svg>
