<svg width="250" height="250" viewBox="0 0 250 250" fill="none" xmlns="http://www.w3.org/2000/svg">
<rect x="0.00012207" width="250" height="250" rx="40" fill="black"/>
<path d="M123.451 129.11C100.956 106.616 100.956 70.1452 123.451 47.651C145.945 25.1568 182.415 25.1568 204.909 47.651C227.404 70.1452 227.404 106.616 204.909 129.11C182.415 151.604 145.945 151.604 123.451 129.11Z" fill="#00FF75"/>
<circle cx="105.122" cy="147.437" r="72" transform="rotate(135 105.122 147.437)" fill="#04FFFE"/>
<path fill-rule="evenodd" clip-rule="evenodd" d="M108.031 75.4961C125.476 76.1972 142.715 83.2071 156.034 96.526C169.353 109.845 176.363 127.083 177.064 144.528C158.387 148.795 137.997 143.656 123.45 129.109C108.904 114.563 103.764 94.1725 108.031 75.4961Z" fill="black"/>
</svg>
